<svg width="208" height="25" viewBox="0 0 208 25" fill="none" xmlns="http://www.w3.org/2000/svg">
<path d="M9.408 13.912C8.976 15.32 7.872 16.248 6.128 16.248C3.216 16.248 1.968 13.848 1.968 11.288C1.968 8.744 3.232 6.328 6.144 6.328C7.888 6.328 8.8 7.096 9.296 8.44H10.416C9.952 6.52 8.368 5.368 6.144 5.368C2.768 5.368 0.912 7.944 0.912 11.288C0.912 14.632 2.768 17.208 6.128 17.208C8.544 17.208 10.064 15.848 10.544 13.912H9.408ZM12.8634 17H13.9194V11.576H17.6634L20.1754 17H21.3274L18.6234 11.128L21.1834 5.576H20.0314L17.6634 10.616H13.9194V5.576H12.8634V17ZM28.2423 5.576H26.3223L22.2423 17H23.3463L24.6423 13.304H29.9062L31.2023 17H32.3383L28.2423 5.576ZM26.9623 6.696H27.5863L29.5703 12.344H24.9783L26.9623 6.696ZM32.835 5.576V8.696C32.835 10.44 32.995 12.264 36.947 12.264C37.827 12.264 39.123 12.152 40.019 11.944V17H41.075V5.576H40.019V10.968C39.123 11.176 38.099 11.304 36.963 11.304C33.891 11.304 33.891 10.056 33.891 8.856V5.576H32.835ZM48.9141 5.576H46.9941L42.9141 17H44.0181L45.3141 13.304H50.5781L51.8741 17H53.0101L48.9141 5.576ZM47.6341 6.696H48.2581L50.2421 12.344H45.6501L47.6341 6.696ZM61.6029 5.576H52.8509V6.504H56.7069V17H57.7629V6.504H61.6029V5.576ZM64.4663 16.04V11.096H67.7943C70.0183 11.096 70.8023 12.072 70.8023 13.56C70.8023 15.064 70.0183 16.04 67.7943 16.04H64.4663ZM67.9863 17C70.4823 17 71.8583 15.704 71.8583 13.576C71.8583 11.416 70.4823 10.136 67.9863 10.136H64.4663V5.576H63.4103V17H67.9863ZM78.6759 5.576V17H79.7319V6.536H86.5479V17H87.6039V5.576H78.6759ZM91.6694 16.04V11.096H94.9974C97.2214 11.096 98.0054 12.072 98.0054 13.56C98.0054 15.064 97.2214 16.04 94.9974 16.04H91.6694ZM95.1894 17C97.6854 17 99.0614 15.704 99.0614 13.576C99.0614 11.416 97.6854 10.136 95.1894 10.136H91.6694V5.576H90.6134V17H95.1894ZM102.482 16.04V11.528H107.938V10.568H102.482V6.536H109.186V5.576H101.426V17H109.458V16.04H102.482ZM119.361 13.912C118.929 15.32 117.825 16.248 116.081 16.248C113.169 16.248 111.921 13.848 111.921 11.288C111.921 8.744 113.185 6.328 116.097 6.328C117.841 6.328 118.753 7.096 119.249 8.44H120.369C119.905 6.52 118.321 5.368 116.097 5.368C112.721 5.368 110.865 7.944 110.865 11.288C110.865 14.632 112.721 17.208 116.081 17.208C118.497 17.208 120.017 15.848 120.497 13.912H119.361ZM125.297 17L130.753 5.576H129.617L126.577 11.944H126.129L122.753 5.576H121.585L125.809 13.576L124.177 17H125.297Z" fill="#000000"/>
<path fill-rule="evenodd" clip-rule="evenodd" d="M195.523 21L194.799 20.2752L189 14.4766L189.703 13.7737L195.024 19.0944L195.024 0H196.024L196.024 19.0502L201.275 13.7986L202 14.5234L196.226 20.2971L195.523 21Z" fill="#000000"/>
</svg>
