<svg width="208" height="25" viewBox="0 0 208 25" fill="none" xmlns="http://www.w3.org/2000/svg">
<path d="M9.408 13.912C8.976 15.32 7.872 16.248 6.128 16.248C3.216 16.248 1.968 13.848 1.968 11.288C1.968 8.744 3.232 6.328 6.144 6.328C7.888 6.328 8.8 7.096 9.296 8.44H10.416C9.952 6.52 8.368 5.368 6.144 5.368C2.768 5.368 0.912 7.944 0.912 11.288C0.912 14.632 2.768 17.208 6.128 17.208C8.544 17.208 10.064 15.848 10.544 13.912H9.408ZM12.8634 17H13.9194V6.696H14.2394L17.5994 12.44H18.7194L22.0634 6.696H22.3834V17H23.4394V5.576H21.5834L18.3354 11.24H18.0314L14.7034 5.576H12.8634V17ZM31.0815 5.368C27.6575 5.368 25.8495 8.024 25.8495 11.288C25.8495 14.552 27.6575 17.208 31.0815 17.208C34.4895 17.208 36.3135 14.552 36.3135 11.288C36.3135 8.024 34.4895 5.368 31.0815 5.368ZM31.0815 16.248C28.1375 16.248 26.9055 13.784 26.9055 11.288C26.9055 8.792 28.1375 6.328 31.0815 6.328C34.0255 6.328 35.2575 8.792 35.2575 11.288C35.2575 13.784 34.0255 16.248 31.0815 16.248ZM45.9623 5.576H37.2103V6.504H41.0663V17H42.1223V6.504H45.9623V5.576ZM47.7696 5.576V17H48.8256V12.232H52.4576C54.8896 12.232 56.2176 10.968 56.2176 8.904C56.2176 6.84 54.8896 5.576 52.4576 5.576H47.7696ZM48.8256 11.272V6.536H52.2816C54.4096 6.536 55.1616 7.464 55.1616 8.904C55.1616 10.344 54.4096 11.272 52.2816 11.272H48.8256ZM59.6381 16.04V11.528H65.0941V10.568H59.6381V6.536H66.3421V5.576H58.5821V17H66.6141V16.04H59.6381ZM76.4779 5.576H67.7259V6.504H71.5819V17H72.6379V6.504H76.4779V5.576ZM79.3413 16.04V11.096H82.6693C84.8933 11.096 85.6773 12.072 85.6773 13.56C85.6773 15.064 84.8933 16.04 82.6693 16.04H79.3413ZM82.8613 17C85.3573 17 86.7333 15.704 86.7333 13.576C86.7333 11.416 85.3573 10.136 82.8613 10.136H79.3413V5.576H78.2853V17H82.8613ZM93.0069 5.576V8.696C93.0069 10.44 93.1669 12.264 97.1189 12.264C97.9989 12.264 99.2949 12.152 100.191 11.944V17H101.247V5.576H100.191V10.968C99.2949 11.176 98.2709 11.304 97.1349 11.304C94.0629 11.304 94.0629 10.056 94.0629 8.856V5.576H93.0069ZM104.254 5.576V17H106.11L111.966 6.696H112.286V17H113.342V5.576H111.486L105.646 15.88H105.31V5.576H104.254ZM123.9 5.576H115.148V6.504H119.004V17H120.06V6.504H123.9V5.576ZM125.707 17H126.763V11.576H130.507L133.019 17H134.171L131.467 11.128L134.027 5.576H132.875L130.507 10.616H126.763V5.576H125.707V17ZM138.734 17L144.19 5.576H143.054L140.014 11.944H139.566L136.19 5.576H135.022L139.246 13.576L137.614 17H138.734Z" fill="#000000"/>
<path fill-rule="evenodd" clip-rule="evenodd" d="M202.908 5.05887L202.908 6.08393L202.908 14.2844L201.914 14.2844L201.914 6.75983L188.412 20.2616L187.705 19.5545L201.176 6.08393L193.749 6.08393L193.749 5.05887L201.914 5.05887L202.908 5.05887Z" fill="#000000"/>
</svg>
